<svg width="1920" height="809" viewBox="0 0 1920 809" fill="none" xmlns="http://www.w3.org/2000/svg">
<g clip-path="url(#clip0_1_5)">
<path d="M1746.43 644.254L1607.51 689.566L1520.16 702.162L1390.22 728.631L1229.26 771.236L1072.33 741.254L1018.17 763.74L983.575 734.174L769.235 808.974L493.398 691.934L358.03 722.853L305.332 701.616L259.762 713.77L218.844 693.131L157.646 708.539L116.967 689.852L71.5164 698.31C71.5164 698.31 -1.28244 692.038 -3.85866e-05 691.127C15.7765 685.141 31.7022 679.363 47.7472 673.846L61.4958 648.08L147.506 598.708L196.775 530.753L276.045 449.161L315.352 449.656L339.897 436.434L435.988 342.948H458.684L558.592 256.645L565.153 399.321L598.496 509.073L666.97 558.029L652.416 465.219L619.044 439.037L575.562 374.674L641.024 423.655L595.752 339.278L632.972 369.703L615.614 332.381L590.354 298.729L607.89 308.932L618.925 303.336L626.56 306.121L638.787 299.9L665.449 286.341L676.454 332.798L691.753 345.29L716.209 320.956L777.645 296.439C776.989 297.714 776.78 350.47 776.78 350.47L853.545 432.322L863.298 481.095L863.417 481.746L848.774 525.886L915.667 566.93L913.252 521.046L896.282 507.486L867.861 461.237L908.987 493.119L868.994 401.767L864.848 375.559L943.88 444.919L981.786 479.221L1054.79 525.392L1033.32 476.384L1071.2 473.964L1091.54 478.623L1183.42 548.581L1159.38 511.858L1245.96 560.267L1296.06 594.049L1310.14 589.104L1321.06 597.823L1352.64 607.791L1381.9 622.444L1434.71 583.17L1453.29 547.983L1499.1 606.932L1512.67 601.415L1526.24 616.952L1557.62 595.064L1573.54 570.756L1584.55 571.745L1594.81 561.334L1609.12 565.628L1637.9 603.236L1668.68 619.997L1683.65 638.294L1694.77 618.67L1704.11 626.113L1721.14 627.155L1730.83 638.424L1736.65 639.309L1737.66 632.646L1746.43 644.202V644.254Z" fill="url(#paint0_linear_1_5)"/>
<path d="M1384.88 443.279L1376.29 425.503L1373.49 417.279L1432.54 444.138L1393.5 406.972L1362.84 392.71L1345.72 361.869L1326.19 352.369L1319.98 340.163L1246.38 290.687L1223.68 253.912L1194.01 205.738L1172.54 184.188L1149.99 142.754L1096.31 108.79L1066.51 73.8625L1040.51 38.0504L976.835 0.052063L975.702 15.7459L998.129 27.4837L1000.1 50.9594L1002.69 60.6412L1010.36 71.0517L998.457 70.2449L995.564 60.7713L959.985 27.1454L945.312 23.6318H945.193L938.93 22.0703L924.376 15.85L923.451 38.9613L930.46 35.7601L912.894 79.7965L935.888 108.634L944.775 99.6285L953.484 105.38L945.223 117.665L941.137 147.855L952.947 134.556L956.078 115.322L995.087 138.954L996.101 168.52L986.766 171.019L998.427 174.532L1000.1 189.679L1008.45 182.47L1001.11 203.603L1006.33 201.86L1013.79 217.111L1011.1 234.262L1057.69 255.994L1051.93 239.442L1084.02 258.831L1066.78 229.864L1101.23 252.064L1116.38 250.919L1143.07 275.748L1167.62 312.419L1193.29 329.57L1216.29 334.515L1287.33 402.418L1288.07 391.617L1303.37 401.923L1326.45 433.832L1375.34 474.563L1345.51 425.503L1365.26 429.693L1385 443.279H1384.88ZM1109.19 231.582L1046.59 179.373L1033.11 151.915L1006.96 130.704L991.3 103.923L1017.6 120.215L1008.57 100.045L1041.05 121.282L1066.57 150.744L1109.34 182.86L1109.25 231.608L1109.19 231.582Z" fill="#FCDEDE"/>
<path d="M1707.03 454.236L1691.08 454.054L1647.24 407.701L1633.64 408.664L1592.39 385.995L1570.35 386.854L1513.89 340.788L1523.32 321.034L1494.57 291.884L1466.86 288.241L1464.87 279.808L1451.03 276.034L1427.56 234.601L1411.03 195.9L1405.96 172.138L1376.2 159.281L1370.53 153.789L1391.35 141.583L1462.81 191.527L1526.48 285.404L1548.67 286.991L1594.9 349.533L1629.01 373.841L1650.64 391.096L1707.03 454.236Z" fill="#FCDEDE"/>
<path d="M1010.3 70.9996L998.398 70.1928L995.505 60.7192L959.925 27.0933L945.252 23.5798L976.805 0L975.672 15.6938L998.07 27.4317L1000.04 50.9073L1002.66 60.5891L1010.3 70.9996Z" fill="#AB4972"/>
<path d="M942.36 193.583L937.558 213.65L925.867 194.937L913.789 183.954L908.331 191.813L910.866 212.114L889.483 195.874L875.317 223.071L874.004 212.504L885.576 190.148L885.755 176.874L867.473 153.945L870.575 133.749L888.26 104.157L912.924 125.707L913.908 138.59L926.464 151.811L929.386 174.688L942.36 193.583Z" fill="#FCDEDE"/>
<path d="M1088.08 343.312L1051.01 323.324L1019.72 308.958L1004.57 299.848L992.731 301.983L973.137 286.939L959.896 282.619L958.673 275.592L952.678 268.435L969.827 239.259L969.678 214.795L986.021 199.882L977.462 219.167L983.695 228.198L996.399 255.864L1004.9 258.831L1032.66 285.638L1034.57 295.398L1057.48 316.193L1088.08 343.312Z" fill="#FCDEDE"/>
<path d="M1109.28 182.834L1109.19 231.582L1046.59 179.347L1033.11 151.889L1006.93 130.704L991.27 103.897L1017.57 120.189L1008.51 100.019L1041.02 121.256L1066.51 150.718L1109.28 182.834Z" fill="#AB4972"/>
<path d="M1245.87 560.293L1095.71 458.973L1052.26 459.832L975.941 424.332L822.141 326.005C807.26 316.141 792.437 306.303 777.555 296.439C776.899 297.714 776.691 350.469 776.691 350.469L853.456 432.322L863.208 481.095L863.328 481.746L848.684 525.886L915.578 566.93L913.162 521.045L896.193 507.486L867.771 461.237L908.898 493.119L868.905 401.767L864.759 375.559L943.791 444.919L981.697 479.221L1054.7 525.392L1033.23 476.384L1071.11 473.964L1091.45 478.623L1183.33 548.581L1159.29 511.858L1245.87 560.267V560.293Z" fill="#FCDEDE"/>
<path d="M1533.22 500.068L1502.38 476.28L1493.47 471.726L1483.15 455.72L1466.68 453.013L1472.23 467.666L1461.32 463.788L1446.52 470.529L1458.04 458.14L1455.77 447.105L1486.7 436.747L1533.22 500.068Z" fill="#FCDEDE"/>
<path d="M1640.61 557.092L1604.02 539.784L1583 527.969L1603.25 534.397L1574.73 508.865L1614.16 528.827L1640.61 557.092Z" fill="#FCDEDE"/>
<path d="M1507.66 317.937L1495.34 341.1V329.076L1507.66 317.937Z" fill="#FCDEDE"/>
<path d="M1409.3 272.833L1380.97 301.254L1389.2 281.266L1397.85 270.777L1409.3 272.833Z" fill="#FCDEDE"/>
<path d="M652.417 465.219L619.044 439.037L575.532 374.674L640.994 423.655L595.722 339.278L632.942 369.703L615.555 332.381L590.294 298.729L607.831 308.958L618.865 303.362L626.5 306.147L638.728 299.901L558.592 256.645L565.153 399.347L598.496 509.073L666.97 558.029L652.417 465.219Z" fill="#FCDEDE"/>
<path d="M795.986 166.542L792.586 172.918L755.784 225.57L702.072 263.23L677.766 291.832L716.119 320.982L691.664 345.29L676.394 332.824L665.39 286.367L704.16 237.021L795.986 166.542Z" fill="#FCDEDE"/>
<path d="M1712.13 454.262H1707.03L1691.11 454.054L1647.24 407.701L1633.67 408.664L1592.42 385.995L1570.38 386.854L1513.92 340.788L1523.35 321.034L1494.6 291.858L1466.89 288.241L1464.9 279.808L1451.09 276.034L1427.62 234.601L1411.09 195.9L1405.99 172.138L1376.23 159.307L1370.56 153.789L1354.46 138.069L1300.09 190.434L1262.63 207.091L1223.71 253.912L1246.41 290.687L1320.01 340.163L1326.22 352.369L1345.75 361.869L1362.87 392.71L1393.53 406.973L1432.57 444.138L1373.52 417.279L1376.32 425.503L1384.91 443.279L1365.17 429.693L1345.42 425.503L1375.25 474.563L1326.37 433.832L1303.28 401.923L1287.98 391.617L1287.24 402.418L1216.2 334.515L1193.2 329.57L1167.53 312.419L1142.98 275.748L1116.29 250.919L1101.14 252.064L1066.69 229.864L1083.93 258.831L1051.84 239.442L1057.6 255.994L1011.01 234.262L1013.7 217.111L1006.24 201.86L1001.02 203.603L1008.36 182.47L1000.01 189.679L998.338 174.532L986.677 171.018L996.012 168.52L994.998 138.954L955.989 115.322L952.857 134.556L941.047 147.855L945.133 117.665L953.394 105.38L944.686 99.6285L935.798 108.634L912.805 79.7965L930.371 35.7601L923.362 38.9613L924.287 15.85L914.743 23.3976L899.951 48.8773L855.037 100.956L819.249 122.87L795.986 166.594L792.616 172.997L755.814 225.648L702.102 263.308L677.796 291.91L716.149 321.034L777.585 296.517C792.467 306.381 807.289 316.219 822.171 326.083L975.97 424.41L1052.29 459.91L1095.74 459.051L1245.9 560.371L1296.01 594.153L1310.08 589.208L1321 597.927L1352.58 607.895L1381.84 622.548L1434.65 583.274L1453.23 548.087L1499.04 607.036L1512.61 601.519L1526.18 617.056L1557.56 595.168L1573.48 570.86L1584.49 571.849L1594.75 561.438L1609.06 565.733L1637.84 603.341L1668.62 620.102L1683.59 638.398L1694.71 618.774L1704.05 626.218L1721.08 627.259L1730.77 638.528L1736.59 639.413L1737.6 632.75L1746.37 644.306L1752.51 642.302L1919.91 587.673L1712.01 454.314L1712.13 454.262ZM1380.97 301.254L1389.2 281.266L1397.85 270.777L1409.3 272.833L1380.97 301.254ZM937.558 213.65L925.867 194.937L913.789 183.954L908.331 191.813L910.866 212.114L889.513 195.848L875.317 223.071L874.004 212.504L885.576 190.122L885.725 176.848L867.473 153.945L870.575 133.749L888.26 104.157L912.924 125.707L913.908 138.59L926.464 151.811L929.386 174.688L942.36 193.583L937.558 213.65ZM1051.01 323.324L1019.75 308.958L1004.6 299.848L992.791 301.983L973.197 286.939L959.955 282.645L958.733 275.592L952.738 268.435L969.887 239.259L969.737 214.795L986.081 199.882L977.521 219.167L983.754 228.198L996.459 255.864L1004.93 258.805L1032.69 285.638L1034.6 295.372L1057.51 316.193L1088.11 343.286L1051.01 323.298V323.324ZM1495.34 329.076L1507.66 317.937L1495.34 341.1V329.076ZM1502.38 476.28L1493.47 471.726L1483.15 455.72L1466.68 453.013L1472.23 467.666L1461.32 463.788L1446.52 470.503L1458.07 458.114L1455.77 447.079L1486.7 436.721L1533.19 500.042L1502.38 476.254V476.28ZM1604.02 539.784L1583 527.969L1603.25 534.397L1574.76 508.865L1614.19 528.827L1640.64 557.118L1604.05 539.784H1604.02Z" fill="url(#paint1_linear_1_5)"/>
</g>
<defs>
<linearGradient id="paint0_linear_1_5" x1="873.206" y1="256.645" x2="873.206" y2="808.974" gradientUnits="userSpaceOnUse">
<stop offset="0.24" stop-color="#AB4972"/>
<stop offset="0.78" stop-color="#1F052E"/>
</linearGradient>
<linearGradient id="paint1_linear_1_5" x1="1298.85" y1="15.85" x2="1298.85" y2="644.306" gradientUnits="userSpaceOnUse">
<stop offset="0.235" stop-color="#F88587"/>
<stop offset="1" stop-color="#34225B"/>
</linearGradient>
<clipPath id="clip0_1_5">
<rect width="1920" height="809" fill="white"/>
</clipPath>
</defs>
</svg>
