<svg width="1920" height="489" viewBox="0 0 1920 489" fill="none" xmlns="http://www.w3.org/2000/svg">
<path d="M126.874 187.004C88.9401 203.801 46.5633 205.022 0 203.533V489H449.827H1920L1919.31 187.897L1833.55 203.533L1754.59 235.424C1674.28 215.916 1487.35 198.33 1422.76 217.272C1358.17 236.214 1269.6 160.05 1213.64 152.158L1026.53 103.016C1008.59 111.504 963.219 133.216 925.285 152.158L825.323 103.016L757.401 91.4011L612.181 0L449.827 91.4011L315.263 103.016L267.846 128.481C256.739 140.989 164.808 170.206 126.874 187.004Z" fill="url(#paint0_linear_126_1478)"/>
<defs>
<linearGradient id="paint0_linear_126_1478" x1="1029.73" y1="449.24" x2="1029.73" y2="63.2565" gradientUnits="userSpaceOnUse">
<stop stop-color="#011144"/>
<stop offset="1" stop-color="#62ABDC"/>
</linearGradient>
</defs>
</svg>
