<svg width="120" height="98" viewBox="0 0 120 98" fill="none" xmlns="http://www.w3.org/2000/svg">
<path d="M21.7894 96C12.6305 86.4449 7 73.4623 7 59.1606C7 29.8008 30.7289 6 60 6C89.2711 6 113 29.8008 113 59.1606C113 73.4623 107.369 86.4449 98.2106 96" stroke="white" stroke-width="5"/>
<line x1="0.499817" y1="59.9999" x2="12.4998" y2="59.9999" stroke="white"/>
<line x1="107.5" y1="59.9999" x2="119.5" y2="59.9999" stroke="white"/>
<line x1="60.4998" y1="-9.15345e-05" x2="60.4998" y2="11.9999" stroke="white"/>
<line x1="6.18196" y1="31.5343" x2="17.3591" y2="35.9014" stroke="white"/>
<line x1="28.3699" y1="7.74829" x2="35.1156" y2="17.6728" stroke="white"/>
<line y1="-0.5" x2="12" y2="-0.5" transform="matrix(-0.931429 0.363924 0.363924 0.931429 114.043 33)" stroke="white"/>
<line y1="-0.5" x2="12" y2="-0.5" transform="matrix(0.931429 -0.363924 -0.363924 -0.931429 6 86.3671)" stroke="white"/>
<line x1="113.861" y1="85.8328" x2="102.684" y2="81.4657" stroke="white"/>
<line y1="-0.5" x2="12" y2="-0.5" transform="matrix(-0.545151 0.838338 0.838338 0.545151 92.9844 8.96158)" stroke="white"/>
</svg>
