<svg width="29" height="29" viewBox="0 0 29 29" fill="none" xmlns="http://www.w3.org/2000/svg">
<path d="M19.3333 29L9.66667 25.6167L2.175 28.5167C1.63796 28.7315 1.1412 28.6711 0.684722 28.3354C0.228241 27.9998 0 27.55 0 26.9861V4.43056C0 4.08148 0.100694 3.77269 0.302083 3.50417C0.503472 3.23565 0.778704 3.03426 1.12778 2.9L9.66667 0L19.3333 3.38333L26.825 0.483333C27.362 0.268519 27.8588 0.328935 28.3153 0.664583C28.7718 1.00023 29 1.45 29 2.01389V24.5694C29 24.9185 28.8993 25.2273 28.6979 25.4958C28.4965 25.7644 28.2213 25.9657 27.8722 26.1L19.3333 29ZM17.7222 25.0528V6.20278L11.2778 3.94722V22.7972L17.7222 25.0528ZM20.9444 25.0528L25.7778 23.4417V4.35L20.9444 6.20278V25.0528ZM3.22222 24.65L8.05556 22.7972V3.94722L3.22222 5.55833V24.65Z" fill="white"/>
</svg>
