<svg width="32" height="22" viewBox="0 0 32 22" fill="none" xmlns="http://www.w3.org/2000/svg">
<path d="M8.587 4.4V0H32V4.4H8.587ZM8.587 13.2V8.8H32V13.2H8.587ZM8.587 22V17.6H32V22H8.587ZM2.14675 4.4C1.5385 4.4 1.02865 4.18917 0.617191 3.7675C0.20573 3.34583 0 2.82333 0 2.2C0 1.57667 0.20573 1.05417 0.617191 0.6325C1.02865 0.210833 1.5385 0 2.14675 0C2.755 0 3.26485 0.210833 3.67631 0.6325C4.08777 1.05417 4.2935 1.57667 4.2935 2.2C4.2935 2.82333 4.08777 3.34583 3.67631 3.7675C3.26485 4.18917 2.755 4.4 2.14675 4.4ZM2.14675 13.2C1.5385 13.2 1.02865 12.9892 0.617191 12.5675C0.20573 12.1458 0 11.6233 0 11C0 10.3767 0.20573 9.85417 0.617191 9.4325C1.02865 9.01083 1.5385 8.8 2.14675 8.8C2.755 8.8 3.26485 9.01083 3.67631 9.4325C4.08777 9.85417 4.2935 10.3767 4.2935 11C4.2935 11.6233 4.08777 12.1458 3.67631 12.5675C3.26485 12.9892 2.755 13.2 2.14675 13.2ZM2.14675 22C1.5385 22 1.02865 21.7892 0.617191 21.3675C0.20573 20.9458 0 20.4233 0 19.8C0 19.1767 0.20573 18.6542 0.617191 18.2325C1.02865 17.8108 1.5385 17.6 2.14675 17.6C2.755 17.6 3.26485 17.8108 3.67631 18.2325C4.08777 18.6542 4.2935 19.1767 4.2935 19.8C4.2935 20.4233 4.08777 20.9458 3.67631 21.3675C3.26485 21.7892 2.755 22 2.14675 22Z" fill="white"/>
</svg>
