<svg width="1921" height="629" viewBox="0 0 1921 629" fill="none" xmlns="http://www.w3.org/2000/svg">
<path d="M101.5 31.932C67.9 39.6439 19.8333 118.691 0 157.25V629H1921V232.201C1879.5 197.859 1764.9 196.557 1664.5 201.859C1564.1 207.161 1455.67 222.52 1414 226.536L1304.5 270.518C1288.83 288.392 1272 286.183 1265.5 286.183C1259 286.183 1252.5 270.518 1239.5 270.518L1127 292.81H816.5L699 226.536L600 207.859L480 182.555L370.5 84.9511L258.5 31.932L206 0C159 0 135.1 24.2201 101.5 31.932Z" fill="url(#paint0_linear_126_1848)"/>
<defs>
<linearGradient id="paint0_linear_126_1848" x1="960" y1="629" x2="960" y2="0" gradientUnits="userSpaceOnUse">
<stop offset="0.225"/>
<stop offset="1" stop-color="#0D0040"/>
</linearGradient>
</defs>
</svg>
