<svg width="105" height="97" viewBox="0 0 105 97" fill="none" xmlns="http://www.w3.org/2000/svg">
<circle cx="53.6251" cy="51.8828" r="25.9414" fill="#FFDF6E"/>
<rect x="50.8654" width="5.51944" height="17.6622" fill="#FFDF6E"/>
<rect x="15.5409" y="17.0873" width="5.51944" height="17.6622" transform="rotate(-44.094 15.5409 17.0873)" fill="#FFDF6E"/>
<rect x="91.9569" y="86.6455" width="5.51944" height="17.6622" transform="rotate(135.906 91.9569 86.6455)" fill="#FFDF6E"/>
<rect x="88.0899" y="13.2467" width="5.51944" height="17.6622" transform="rotate(44.5341 88.0899 13.2467)" fill="#FFDF6E"/>
<rect x="104.955" y="49.123" width="5.51944" height="17.6622" transform="rotate(89.5361 104.955 49.123)" fill="#FFDF6E"/>
<path d="M21.3363 51.0548C33.2583 49.2886 37.1587 59.518 38.1706 64.5775C42.5862 62.3697 47.94 62.7561 51.6933 64.3015C58.0406 66.9151 61.3523 72.8566 59.9724 81.1358C57.7646 88.2007 52.4292 91.4388 50.0374 91.8987C44.702 91.8987 31.2713 91.8987 19.6805 91.3468C6.87537 87.8143 4.594 74.9724 5.05395 68.993C5.51391 63.7496 9.41431 52.8211 21.3363 51.0548Z" fill="white" stroke="white" stroke-width="10"/>
</svg>
