<svg width="68" height="63" viewBox="0 0 68 63" fill="none" xmlns="http://www.w3.org/2000/svg">
<circle cx="35.6348" cy="32.6876" r="16.3438" fill="#FFDF6E"/>
<rect x="33.8965" width="3.4774" height="11.1277" fill="#FFDF6E"/>
<rect x="11.6406" y="10.7654" width="3.4774" height="11.1277" transform="rotate(-44.094 11.6406 10.7654)" fill="#FFDF6E"/>
<rect x="59.7852" y="54.5891" width="3.4774" height="11.1277" transform="rotate(135.906 59.7852 54.5891)" fill="#FFDF6E"/>
<rect x="57.3486" y="8.34576" width="3.4774" height="11.1277" transform="rotate(44.5341 57.3486 8.34576)" fill="#FFDF6E"/>
<rect x="67.9746" y="30.9489" width="3.4774" height="11.1277" transform="rotate(89.5361 67.9746 30.9489)" fill="#FFDF6E"/>
<path d="M15.2923 32.166C22.8035 31.0532 25.2609 37.498 25.8984 40.6856C28.6803 39.2946 32.0534 39.5381 34.418 40.5117C38.417 42.1584 40.5035 45.9017 39.6341 51.1178C38.2432 55.5689 34.8817 57.609 33.3748 57.8987C30.0133 57.8987 21.5517 57.8987 14.2491 57.551C6.18153 55.3255 4.74421 47.2347 5.03399 43.4675C5.32377 40.164 7.78114 33.2787 15.2923 32.166Z" fill="white" stroke="white" stroke-width="10"/>
</svg>
