<svg width="45" height="64" viewBox="0 0 45 64" fill="none" xmlns="http://www.w3.org/2000/svg">
<path d="M15.2923 5.12758C22.8035 4.01481 25.2609 10.4596 25.8984 13.6472C28.6803 12.2563 32.0534 12.4997 34.418 13.4733C38.417 15.12 40.5035 18.8633 39.6341 24.0794C38.2432 28.5305 34.8817 30.5706 33.3748 30.8603C30.0133 30.8603 21.5517 30.8603 14.2491 30.5126C6.18153 28.2871 4.74421 20.1963 5.03399 16.4291C5.32377 13.1256 7.78114 6.24035 15.2923 5.12758Z" fill="white" stroke="white" stroke-width="10"/>
<path d="M18 50C18 51.6569 16.6569 53 15 53C13.3431 53 12 51.6569 12 50C12 48.3431 13.3431 43 15 43C16.6569 43 18 48.3431 18 50Z" fill="#6079FF"/>
<path d="M31 50C31 51.6569 29.6569 53 28 53C26.3431 53 25 51.6569 25 50C25 48.3431 26.3431 43 28 43C29.6569 43 31 48.3431 31 50Z" fill="#6079FF"/>
<path d="M25 61C25 62.6569 23.6569 64 22 64C20.3431 64 19 62.6569 19 61C19 59.3431 20.3431 54 22 54C23.6569 54 25 59.3431 25 61Z" fill="#6079FF"/>
</svg>
