<svg width="54" height="46" viewBox="0 0 54 46" fill="none" xmlns="http://www.w3.org/2000/svg">
<path d="M15.2923 15.1276C22.8035 14.0148 25.2609 20.4596 25.8984 23.6472C28.6803 22.2563 32.0534 22.4997 34.418 23.4733C38.417 25.12 40.5035 28.8633 39.6341 34.0794C38.2432 38.5305 34.8817 40.5706 33.3748 40.8603C30.0133 40.8603 21.5517 40.8603 14.2491 40.5126C6.18153 38.2871 4.74421 30.1963 5.03399 26.4291C5.32377 23.1256 7.78114 16.2403 15.2923 15.1276Z" fill="white" stroke="white" stroke-width="10"/>
<path d="M43.2506 3.03947C45.6228 2.69523 46.3989 4.68895 46.6002 5.67505C47.4789 5.24475 48.5442 5.32005 49.291 5.62126C50.554 6.13066 51.2129 7.28867 50.9383 8.90229C50.499 10.2792 49.4374 10.9104 48.9615 11C47.8998 11 45.2274 11 42.9211 10.8924C40.3732 10.2039 39.9192 7.70104 40.0107 6.53565C40.1023 5.51369 40.8784 3.38371 43.2506 3.03947Z" fill="white" stroke="white" stroke-width="5"/>
</svg>
