<svg width="30" height="30" viewBox="0 0 30 30" fill="none" xmlns="http://www.w3.org/2000/svg">
<path d="M22.1199 1.32132C23.7134 0.213465 25.7922 1.79628 25.1482 3.6271L22.866 10.1152C22.5781 10.9337 22.8508 11.8445 23.5411 12.3701L29.0045 16.5299C30.5438 17.7019 29.6877 20.159 27.7534 20.1207L20.8509 19.9842C19.9878 19.9671 19.2111 20.5057 18.9247 21.3201L16.6316 27.8391C15.9884 29.6678 13.3805 29.6037 12.8279 27.7456L10.8751 21.1791C10.627 20.3449 9.86782 19.7669 8.99762 19.7496L2.14827 19.6141C0.210167 19.5758 -0.545458 17.0789 1.04617 15.9724L6.7202 12.0276C7.42902 11.5348 7.74165 10.6429 7.49556 9.81539L5.5276 3.19805C4.97608 1.34358 7.11686 -0.135357 8.65619 1.03669L14.1195 5.19647C14.8099 5.72209 15.7604 5.74264 16.4728 5.24736L22.1199 1.32132Z" fill="#FFE99C"/>
</svg>
